<svg xmlns="http://www.w3.org/2000/svg" xmlns:xlink="http://www.w3.org/1999/xlink" width="1080" zoomAndPan="magnify" viewBox="0 0 810 809.999993" height="1080" preserveAspectRatio="xMidYMid meet" version="1.0"><path fill="#000000" d="M 421.429688 532.765625 L 421.429688 724.011719 C 434.667969 723.34375 447.675781 721.761719 460.445312 719.519531 C 504.792969 687.488281 541.179688 618.816406 559.683594 532.765625 Z M 421.429688 532.765625 " fill-opacity="1" fill-rule="nonzero"/><path fill="#000000" d="M 388.570312 277.234375 L 388.570312 85.972656 C 375.320312 86.644531 362.324219 88.226562 349.554688 90.480469 C 305.207031 122.511719 268.820312 191.183594 250.316406 277.234375 Z M 388.570312 277.234375 " fill-opacity="1" fill-rule="nonzero"/><path fill="#000000" d="M 697.675781 277.234375 C 664.3125 201.132812 602.132812 140.460938 525.007812 109.058594 C 556.191406 150.949219 580.289062 209.019531 593.742188 277.234375 Z M 697.675781 277.234375 " fill-opacity="1" fill-rule="nonzero"/><path fill="#000000" d="M 460.445312 90.480469 C 447.675781 88.238281 434.667969 86.644531 421.429688 85.972656 L 421.429688 277.222656 L 559.699219 277.222656 C 541.195312 191.171875 504.792969 122.5 460.445312 90.480469 Z M 460.445312 90.480469 " fill-opacity="1" fill-rule="nonzero"/><path fill="#000000" d="M 349.554688 719.519531 C 362.324219 721.761719 375.332031 723.34375 388.570312 724.011719 L 388.570312 532.765625 L 250.300781 532.765625 C 268.820312 618.828125 305.207031 687.5 349.554688 719.519531 Z M 349.554688 719.519531 " fill-opacity="1" fill-rule="nonzero"/><path fill="#000000" d="M 112.324219 532.765625 C 145.6875 608.867188 207.867188 669.539062 284.992188 700.941406 C 253.808594 659.035156 229.710938 600.996094 216.257812 532.765625 Z M 112.324219 532.765625 " fill-opacity="1" fill-rule="nonzero"/><path fill="#000000" d="M 525.007812 700.953125 C 602.132812 669.554688 664.3125 608.878906 697.675781 532.777344 L 593.742188 532.777344 C 580.300781 600.996094 556.191406 659.050781 525.007812 700.953125 Z M 525.007812 700.953125 " fill-opacity="1" fill-rule="nonzero"/><path fill="#000000" d="M 284.992188 109.046875 C 207.867188 140.445312 145.6875 201.132812 112.324219 277.222656 L 216.257812 277.222656 C 229.699219 209.003906 253.796875 150.949219 284.992188 109.046875 Z M 284.992188 109.046875 " fill-opacity="1" fill-rule="nonzero"/><path fill="#000000" d="M 405 0 C 181.679688 0 0 181.679688 0 405 C 0 628.320312 181.679688 810 405 810 C 628.320312 810 810 628.320312 810 405 C 810 181.679688 628.320312 0 405 0 Z M 405 769.273438 C 204.132812 769.273438 40.726562 605.855469 40.726562 405 C 40.726562 204.132812 204.132812 40.726562 405 40.726562 C 605.867188 40.726562 769.273438 204.132812 769.273438 405 C 769.273438 605.867188 605.867188 769.273438 405 769.273438 Z M 405 769.273438 " fill-opacity="1" fill-rule="nonzero"/><path fill="#000000" d="M 180.046875 469.875 L 207.636719 380.003906 L 209.132812 380.003906 L 236.710938 469.875 L 258.667969 469.875 L 304.445312 338.730469 L 280.628906 338.730469 L 247.59375 433.109375 L 218.332031 338.730469 L 198.449219 338.730469 L 169.175781 433.109375 L 136.15625 338.730469 L 112.324219 338.730469 L 158.113281 469.875 Z M 180.046875 469.875 " fill-opacity="1" fill-rule="nonzero"/><path fill="#000000" d="M 455.296875 469.875 L 501.074219 338.730469 L 477.253906 338.730469 L 444.222656 433.109375 L 414.960938 338.730469 L 395.078125 338.730469 L 365.804688 433.109375 L 332.785156 338.730469 L 308.953125 338.730469 L 354.742188 469.875 L 376.675781 469.875 L 404.265625 380.003906 L 405.757812 380.003906 L 433.335938 469.875 Z M 455.296875 469.875 " fill-opacity="1" fill-rule="nonzero"/><path fill="#000000" d="M 640.835938 433.109375 L 611.5625 338.730469 L 591.691406 338.730469 L 562.417969 433.109375 L 529.386719 338.730469 L 505.554688 338.730469 L 551.34375 469.875 L 573.289062 469.875 L 600.878906 380.003906 L 602.375 380.003906 L 629.953125 469.875 L 651.910156 469.875 L 697.675781 338.730469 L 673.855469 338.730469 Z M 640.835938 433.109375 " fill-opacity="1" fill-rule="nonzero"/></svg>